#!OML:ASF F:\VICON\USERDATA\INSTALL\rory3\rory3.ASF
:FULLY-SPECIFIED
:DEGREES
235
root -0.11146963658253717 17.81865644183299 55.38580577828224 -2.598527862137748 -2.5787410258332333 -2.9369075841445724
lfemur -7.1693549263870455 -1.1712909009011212 -21.53052793965824
ltibia 20.7043365773037
lfoot 8.283201899740074 -11.017742434743866
ltoes 0.27496150237910744
rfemur -13.477842251817936 5.25406857884675 26.03815094207487
rtibia 28.063249661757173
rfoot -5.830407298808444 -4.207031825462541
rtoes 7.400145936732386
lowerback 10.7609432782445 0.09437883783497769 2.826065289075217
upperback 0.21355723781278024 0.6445394321108117 1.520304103871595
thorax -5.0881589350690755 0.2126998975028062 -0.4089409381499267
lowerneck -16.02379833639537 -2.6859593809921107 -3.7432499081808315
upperneck 22.17276314199555 -3.098576410676931 0.8090610777770205
head 9.555422668500249 -1.598661935438558 0.8146332884801677
lclavicle 1.4573599704671698e-16 2.360213934198433e-16
lhumerus -32.74415644485426 4.40241321687752 79.55833297828879
lradius 27.196437306276533
lwrist 6.366978963807374
lhand -29.7801781509723 18.916720243416055
lfingers 7.12502
lthumb -2.9891734490758246 49.09284646572028
rclavicle 1.4587368380145224e-16 2.3615510661312157e-16
rhumerus -26.202386826195468 -18.566830761559643 -76.631819930939
rradius 18.680517958072727
rwrist 10.65939658217857
rhand -17.93355983798684 23.11852085820481
rfingers 7.12502
rthumb 7.706875394458606 -7.032611898928073
236
root -0.11564630622830191 17.80766928311954 55.49269493236275 -2.2708911015877664 -2.709035784742756 -3.508412262437702
lfemur -7.300358243186894 -1.2610721264997715 -20.76283759283
ltibia 21.57437297815516
lfoot 7.807199054253455 -11.125011150912542
ltoes 0.24975248679992346
rfemur -12.451427003655587 5.580486759523625 26.93012796666584
rtibia 28.229928982448072
rfoot -5.535551733635189 -3.7961303169087914
rtoes 7.950150649676427
lowerback 10.58198134079024 0.19280552049856253 3.291296093625678
upperback 0.1278081394049898 0.8865780502863191 1.6216165383931733
thorax -5.095288844526954 0.3254728054604119 -0.6987684413410484
lowerneck -16.017880622557353 -2.68376294310566 -3.71925222495101
upperneck 22.207370290427807 -3.090528970118901 0.7254088031027155
head 9.568608021061669 -1.5992702284358626 0.7871198299921945
lclavicle 1.4663747038607458e-16 2.3671482095075846e-16
lhumerus -32.69876141201824 4.105337834238157 79.58532732780684
lradius 27.353835945575966
lwrist 6.157007384508436
lhand -29.779904265304193 18.73277974028262
lfingers 7.12502
lthumb -3.023231962667339 48.895813227593365
rclavicle 1.4585633100743436e-16 2.3614177000463476e-16
rhumerus -26.42243629253714 -18.92035910446884 -76.66682549432738
rradius 18.557797172980266
rwrist 10.693409746683297
rhand -18.003488911813704 23.028712743490356
rfingers 7.12502
rthumb 7.653399903623859 -7.226251673794862
237
root -0.10586059078445059 17.796459717596985 55.47178715448152 -2.3025841225224357 -2.6339141753788926 -3.1447831963403914
lfemur -7.5053578884062855 -1.5287028794649251 -20.86339027605984
ltibia 22.721126546327522
lfoot 7.2611030502030856 -10.871893561709163
ltoes 0.2322509105074646
rfemur -11.359511484576078 5.453993373132124 26.98627668956664
rtibia 28.73296827653776
rfoot -5.373204912783009 -3.436394850389495
rtoes 8.68688160291333
lowerback 10.55891926796323 0.20223366880455612 3.20967359785047
upperback 0.09424708400168402 0.8712433696563098 1.5712425610477552
thorax -5.164848835039274 0.33297504759801305 -0.8135532317447225
lowerneck -15.995154181620098 -2.6895221234094944 -3.6791370513042105
upperneck 22.20538918351773 -3.103454026445611 0.6765866543053586
head 9.558733151386432 -1.6015181935303613 0.7630720118239753
lclavicle 1.458094807301473e-16 2.3607891145465436e-16
lhumerus -32.670803386606515 4.0513124849856545 79.58805285511008
lradius 27.428967773600796
lwrist 5.957634125966423
lhand -29.841927134574167 19.09570007406811
lfingers 7.12502
lthumb -3.1319045543789485 49.05478223735692
rclavicle 1.4557304178504453e-16 2.3592390434303253e-16
rhumerus -26.594642820032018 -19.109747725851918 -76.73411645637442
rradius 18.540660076026615
rwrist 10.548566012073392
rhand -18.037053124871452 22.987549439091254
rfingers 7.12502
rthumb 7.673960822321576 -7.3544714055192
238
root -0.10425285716829141 17.799289163006904 55.39293630691372 -2.2334213340225744 -2.4900798998067906 -2.9447627131383687
lfemur -7.749200342497582 -1.860463770062337 -20.834370250655606
ltibia 23.416415014486166
lfoot 7.152659584493738 -9.798289005153402
ltoes 0.5184672286055374
rfemur -10.506606416739727 5.273060907323278 26.97918275324374
rtibia 29.297352708530276
rfoot -5.221040955945882 -3.1983995935141456
rtoes 8.89965101495893
lowerback 10.452841273010215 0.20186301606938628 3.175589337710452
upperback 0.04385181906732752 0.871477885147503 1.5552503509515434
thorax -5.205818601705886 0.33008469480768626 -0.8814580274391821
lowerneck -15.987895407548294 -2.6955042904888913 -3.648220560857621
upperneck 22.228942041478746 -3.1082205127920393 0.67089342167887
head 9.567818864414326 -1.6041494922916866 0.7649410615424193
lclavicle 1.4629125760898727e-16 2.364514754052038e-16
lhumerus -32.59820919533932 4.139039118161251 79.55684046296932
lradius 27.40912566371041
lwrist 6.328323123833804
lhand -29.986984818489887 18.96511106257922
lfingers 7.12502
lthumb -3.24352722496009 48.888132352863735
rclavicle 1.4599177747289766e-16 2.362458900926535e-16
rhumerus -26.748298291415647 -19.223556139172825 -76.69391223666668
rradius 18.540529622261488
rwrist 10.48175074536454
rhand -18.112790484912818 22.877899354625878
rfingers 7.12502
rthumb 7.593241742007449 -7.712278985914973
